HIERARCHY
ROOT RootJoint
{
    OFFSET   0.000000   0.000000   0.000000
    CHANNELS 6 Xposition Yposition Zposition Xrotation Yrotation Zrotation
    JOINT pelvis_lowerback
    {
        OFFSET   0.000000   0.093605   0.000000
        CHANNELS 3 Xrotation Yrotation Zrotation
        JOINT lowerback_torso
        {
            OFFSET   0.000000   0.100000   0.000000
            CHANNELS 3 Xrotation Yrotation Zrotation
            JOINT torso_head
            {
                OFFSET   0.000000   0.282350   0.000000
                CHANNELS 3 Xrotation Yrotation Zrotation
                End Site
                {
                    OFFSET   0.000000   0.192650   0.000000
                }
            }
            JOINT rTorso_Clavicle
            {
                OFFSET  -0.001000   0.157500   0.000000
                CHANNELS 3 Xrotation Yrotation Zrotation
                JOINT rShoulder
                {
                    OFFSET  -0.117647   0.000000   0.000000
                    CHANNELS 3 Xrotation Yrotation Zrotation
                    JOINT rElbow
                    {
                        OFFSET  -0.245000   0.000000   0.000000
                        CHANNELS 3 Xrotation Yrotation Zrotation
                        JOINT rWrist
                        {
                            OFFSET  -0.240000   0.000000   0.000000
                            CHANNELS 3 Xrotation Yrotation Zrotation
                            End Site
                            {
                                OFFSET  -0.116353  -0.002500   0.000000
                            }
                        }
                    }
                }
            }
            JOINT lTorso_Clavicle
            {
                OFFSET   0.001000   0.157500   0.000000
                CHANNELS 3 Xrotation Yrotation Zrotation
                JOINT lShoulder
                {
                    OFFSET   0.117647   0.000000   0.000000
                    CHANNELS 3 Xrotation Yrotation Zrotation
                    JOINT lElbow
                    {
                        OFFSET   0.245000   0.000000   0.000000
                        CHANNELS 3 Xrotation Yrotation Zrotation
                        JOINT lWrist
                        {
                            OFFSET   0.240000   0.000000   0.000000
                            CHANNELS 3 Xrotation Yrotation Zrotation
                            End Site
                            {
                                OFFSET   0.116353  -0.002500   0.000000
                            }
                        }
                    }
                }
            }
        }
    }
    JOINT rHip
    {
        OFFSET  -0.100000  -0.051395   0.000000
        CHANNELS 3 Xrotation Yrotation Zrotation
        JOINT rKnee
        {
            OFFSET   0.000000  -0.410000   0.000000
            CHANNELS 3 Xrotation Yrotation Zrotation
            JOINT rAnkle
            {
                OFFSET   0.000000  -0.390000   0.000000
                CHANNELS 3 Xrotation Yrotation Zrotation
                JOINT rToeJoint
                {
                    OFFSET   0.000000  -0.050000   0.130000
                    CHANNELS 3 Xrotation Yrotation Zrotation
                    End Site
                    {
                        OFFSET  -0.010000   0.002000   0.060000
                    }
                }
            }
        }
    }
    JOINT lHip
    {
        OFFSET   0.100000  -0.051395   0.000000
        CHANNELS 3 Xrotation Yrotation Zrotation
        JOINT lKnee
        {
            OFFSET   0.000000  -0.410000   0.000000
            CHANNELS 3 Xrotation Yrotation Zrotation
            JOINT lAnkle
            {
                OFFSET   0.000000  -0.390000   0.000000
                CHANNELS 3 Xrotation Yrotation Zrotation
                JOINT lToeJoint
                {
                    OFFSET   0.000000  -0.050000   0.130000
                    CHANNELS 3 Xrotation Yrotation Zrotation
                    End Site
                    {
                        OFFSET   0.010000   0.002000   0.060000
                    }
                }
            }
        }
    }
}
MOTION
Frames: 15
Frame Time:   0.008333
 -2.362509   0.919575   2.819870  -8.048620  40.661211   2.841752   9.828549   1.129431  -1.148483   8.552051  -0.893189   3.315705   6.650550   0.090578   0.965068   0.214265   9.260693   2.406610  -9.915067   2.414048  46.854233  -0.001953  30.042683   0.000360  -3.029794   1.868221  -6.159795  -3.362712  -8.305510   2.506484 -27.754546  -3.304117 -32.339566  -0.202314 -61.718550  -0.152188  -3.438293  -5.455652  12.483436   2.422504  -3.676701  -7.873867  10.336786   0.000066  -0.000140   1.967490  -1.643495   2.545665 -12.861707  -0.000576   0.000147   5.200102   4.598261   7.793352   8.711369  -0.000044  -0.000028  -8.117904   8.375099   2.422326   0.951863  -0.000042   0.000003
 -2.362050   0.919663   2.819495  -8.026230  40.684581   2.816190   9.847955   1.057736  -1.080769   8.605775  -0.921875   3.276065   6.605001  -0.005911   0.958124   0.242092   9.227484   2.275464  -9.861075   2.444401  47.131028  -0.002049  29.776774   0.000461  -3.102162   1.855808  -6.085536  -3.079540  -8.215748   2.292399 -26.565242  -3.104554 -33.049688  -0.206985 -59.617447  -0.154595  -3.448216  -5.479402  12.453290   2.340465  -3.749706  -7.898556  10.428693   0.000070  -0.000163   2.053743  -1.624427   2.490351 -13.039765  -0.000597   0.000166   5.197086   4.608258   7.772992   8.670531  -0.000048  -0.000031  -8.086062   8.346400   2.364614   0.932495  -0.000049   0.000003
 -2.361558   0.919708   2.819158  -8.005219  40.696428   2.812617   9.865753   0.980646  -1.029082   8.662241  -0.955488   3.227596   6.546969  -0.098621   0.962687   0.268218   9.198791   2.154772  -9.810498   2.475472  47.396547  -0.002066  29.528253   0.000494  -3.173358   1.830450  -5.989362  -2.763892  -8.131312   2.039074 -25.403998  -2.899928 -33.755438  -0.206941 -57.605265  -0.152963  -3.514039  -5.229880  12.301489   2.260424  -3.820692  -7.940578  10.532586   0.000070  -0.000196   2.197988  -1.612685   2.421908 -13.679333  -0.001039   0.000388   5.201379   4.623794   7.729070   8.633256  -0.000050  -0.000031  -8.060739   8.322113   2.305563   0.912366  -0.000055   0.000003
 -2.361085   0.919790   2.818812  -7.984161  40.716012   2.787737   9.892239   0.902098  -0.958338   8.728910  -0.991611   3.180798   6.487419  -0.185882   0.972127   0.292047   9.171255   2.044120  -9.763739   2.504301  47.642520  -0.002040  29.295738   0.000522  -3.242279   1.804374  -5.896223  -2.444308  -8.052885   1.755596 -24.295001  -2.707635 -34.447665  -0.202304 -55.714801  -0.147779  -3.598904  -4.885059  12.087830   2.187477  -3.870679  -7.967396  10.621011   0.000076  -0.000191   2.256952  -1.584503   2.371910 -13.755222  -0.000885   0.000310   5.201018   4.634139   7.708510   8.596394  -0.000052  -0.000031  -8.034610   8.296879   2.253160   0.893837  -0.000057   0.000003
 -2.360651   0.919872   2.818470  -7.962352  40.734822   2.760754   9.927961   0.829016  -0.898159   8.804542  -1.025864   3.130254   6.431235  -0.267486   0.984186   0.315426   9.144885   1.943763  -9.719198   2.530990  47.874872  -0.001979  29.078577   0.000566  -3.308705   1.778147  -5.803230  -2.132635  -7.979594   1.466713 -23.245749  -2.533483 -35.113697  -0.194031 -53.945483  -0.140081  -3.687166  -4.514436  11.841532   2.114284  -3.919983  -7.990028  10.705171   0.000079  -0.000186   2.323799  -1.560933   2.326476 -13.849453  -0.000770   0.000254   5.197845   4.643475   7.691403   8.560873  -0.000052  -0.000031  -8.008063   8.273245   2.204344   0.876381  -0.000058   0.000002
 -2.360261   0.919950   2.818137  -7.939527  40.753248   2.734314   9.972021   0.762415  -0.850993   8.886955  -1.057374   3.073824   6.379561  -0.343746   0.995981   0.338674   9.119501   1.852775  -9.676448   2.555360  48.093862  -0.001890  28.875420   0.000623  -3.372631   1.750416  -5.710443  -1.834399  -7.910983   1.181824 -22.258129  -2.378159 -35.748334  -0.183271 -52.292275  -0.130828  -3.772741  -4.145182  11.581824   2.042288  -3.967481  -8.011048  10.783694   0.000078  -0.000178   2.390053  -1.541125   2.282992 -13.947561  -0.000677   0.000211   5.191174   4.651443   7.675312   8.527970  -0.000050  -0.000030  -7.981600   8.250845   2.158289   0.859905  -0.000056   0.000002
 -2.359913   0.920022   2.817816  -7.915282  40.771782   2.708288  10.022670   0.702587  -0.816192   8.973727  -1.085743   3.012046   6.332568  -0.414969   1.006498   0.361726   9.094964   1.769661  -9.635414   2.577446  48.299624  -0.001781  28.685244   0.000682  -3.434132   1.720521  -5.618941  -1.551875  -7.846481   0.905991 -21.331224  -2.240698 -36.349545  -0.171003 -50.748793  -0.120773  -3.853497  -3.788049  11.319328   1.972017  -4.013142  -8.030520  10.855877   0.000074  -0.000167   2.454245  -1.524610   2.241678 -14.045445  -0.000599   0.000178   5.180896   4.657877   7.660304   8.497529  -0.000048  -0.000029  -7.955304   8.229395   2.114809   0.844427  -0.000054   0.000002
 -2.359516   0.920108   2.817477  -7.872840  40.737230   2.659411  10.066215   0.644445  -0.771743   9.033895  -1.115644   2.968151   6.271108  -0.513068   1.009696   0.392119   9.112020   1.649108  -9.607370   2.641800  48.516624  -0.001823  28.409391   0.000819  -3.507155   1.708780  -5.517316  -1.272779  -7.779841   0.757857 -20.293475  -2.128977 -37.139035  -0.169097 -48.894295  -0.119152  -3.891334  -3.684252  11.176538   1.873240  -4.014535  -8.045478  10.943172   0.000075  -0.000174   2.546374  -1.502771   2.215850 -14.188136  -0.000547   0.000169   5.176523   4.708332   7.647930   8.449704  -0.000050  -0.000025  -7.925705   8.220582   2.060821   0.826068  -0.000056   0.000002
 -2.359093   0.920207   2.817137  -7.833891  40.699303   2.603860  10.111877   0.580661  -0.717589   9.097008  -1.147355   2.928812   6.205128  -0.607371   1.019705   0.417362   9.132761   1.534592  -9.584288   2.704854  48.718340  -0.001802  28.150875   0.000870  -3.578639   1.681278  -5.412521  -0.980836  -7.717240   0.583828 -19.293249  -2.020917 -37.908244  -0.164648 -47.134864  -0.115651  -3.956534  -3.421223  10.955877   1.772689  -4.008669  -8.053627  11.037565   0.000078  -0.000180   2.660769  -1.474975   2.195282 -13.137985   0.000024  -0.000010   5.176781   4.759107   7.642738   8.401596  -0.000053  -0.000020  -7.898666   8.215773   2.011453   0.808414  -0.000057   0.000002
 -2.358677   0.920282   2.816809  -7.794231  40.650435   2.558444  10.158135   0.523337  -0.678188   9.162942  -1.175224   2.882999   6.141926  -0.695933   1.032419   0.440900   9.152385   1.429479  -9.563139   2.764249  48.909015  -0.001739  27.910115   0.000890  -3.647504   1.654406  -5.308822  -0.694796  -7.655470   0.399079 -18.345677  -1.924540 -38.643786  -0.157504 -45.486078  -0.110145  -4.028960  -3.108746  10.696616   1.678704  -4.014008  -8.071374  11.120220   0.000075  -0.000195   2.750829  -1.462519   2.169328 -13.527681  -0.000174   0.000164   5.177429   4.813503   7.625829   8.359147  -0.000053  -0.000014  -7.876111   8.217128   1.962853   0.790856  -0.000057   0.000002
 -2.358290   0.920345   2.816489  -7.754921  40.597708   2.516964  10.207629   0.472268  -0.646940   9.231493  -1.199394   2.832102   6.082797  -0.778802   1.044830   0.463161   9.170692   1.332925  -9.543428   2.819618  49.087783  -0.001649  27.685344   0.000900  -3.713617   1.628488  -5.208721  -0.421286  -7.596124   0.211618 -17.454148  -1.841723 -39.341817  -0.148486 -43.945124  -0.103338  -4.100294  -2.790271  10.425244   1.588960  -4.021389  -8.088830  11.191374   0.000068  -0.000202   2.830934  -1.453132   2.145731 -13.844127  -0.000281   0.000292   5.176120   4.867736   7.606305   8.321974  -0.000051  -0.000009  -7.856099   8.221703   1.916166   0.773973  -0.000057   0.000002
 -2.357937   0.920403   2.816180  -7.716436  40.546221   2.478049  10.259851   0.426413  -0.622327   9.301753  -1.220713   2.778263   6.028298  -0.856247   1.056218   0.484575   9.187339   1.243593  -9.524707   2.870914  49.255033  -0.001544  27.475314   0.000904  -3.777069   1.602425  -5.112618  -0.162828  -7.539784   0.027480 -16.618344  -1.772331 -40.000811  -0.138307 -42.506602  -0.095802  -4.167711  -2.481148  10.152741   1.503324  -4.029254  -8.105844  11.255815   0.000061  -0.000202   2.905498  -1.446037   2.122972 -14.110532  -0.000339   0.000369   5.172527   4.919277   7.586798   8.288403  -0.000048  -0.000004  -7.837123   8.227080   1.872010   0.758012  -0.000055   0.000001
 -2.357618   0.920456   2.815884  -7.678865  40.498547   2.441150  10.313653   0.385220  -0.603498   9.372294  -1.239601   2.723070   5.978385  -0.928579   1.066344   0.505323   9.202225   1.160536  -9.506759   2.918264  49.411296  -0.001431  27.278971   0.000904  -3.837974   1.575629  -5.020677   0.079596  -7.486434  -0.149504 -15.836613  -1.715308 -40.620384  -0.127534 -41.164520  -0.087954  -4.230306  -2.187339   9.885112   1.421850  -4.036782  -8.121814  11.314560   0.000054  -0.000196   2.975866  -1.439889   2.101411 -14.338371  -0.000363   0.000404   5.166670   4.966972   7.568406   8.257341  -0.000045  -0.000001  -7.818426   8.231939   1.830498   0.743063  -0.000052   0.000001
 -2.357323   0.920523   2.815546  -7.643677  40.412277   2.387434  10.394403   0.343042  -0.570429   9.415009  -1.249640   2.677117   5.912276  -1.018964   1.062450   0.538741   9.254195   1.061941  -9.517462   2.983793  49.554252  -0.001338  27.070479   0.000918  -3.928137   1.540787  -4.952101   0.286887  -7.433485  -0.244053 -15.066629  -1.649529 -41.359140  -0.120340 -39.707347  -0.082418  -4.288773  -2.012405   9.711338   1.334405  -3.998927  -8.122620  11.372797   0.000049  -0.000189   3.083018  -1.419289   2.094857 -14.584761  -0.000356   0.000409   5.155570   5.058068   7.565750   8.243820  -0.000039  -0.000000  -7.812399   8.232445   1.799438   0.730497  -0.000048   0.000001
 -2.357045   0.920587   2.815204  -7.609203  40.319341   2.333295  10.474567   0.300794  -0.538127   9.456932  -1.257576   2.632958   5.847527  -1.105218   1.060915   0.563867   9.310419   0.967504  -9.533671   3.049848  49.686451  -0.001229  26.877881   0.000893  -4.014795   1.510369  -4.889660   0.490817  -7.384737  -0.346091 -14.337131  -1.591552 -42.064113  -0.112604 -38.336884  -0.076706  -4.356391  -1.776799   9.523346   1.248313  -3.960720  -8.121704  11.425539   0.000044  -0.000183   3.191077  -1.397468   2.088083 -14.806323  -0.000342   0.000413   5.143829   5.149564   7.563677   8.234354  -0.000033   0.000000  -7.808757   8.238996   1.770664   0.718473  -0.000044   0.000001
